<svg xmlns="http://www.w3.org/2000/svg" viewBox="0 0 1024 1024" role="img" aria-label="Remote Desk">
  <defs>
    <linearGradient id="appBg" x1="166" y1="90" x2="854" y2="938" gradientUnits="userSpaceOnUse">
      <stop offset="0" stop-color="#315BFF"/>
      <stop offset="0.48" stop-color="#1199E6"/>
      <stop offset="1" stop-color="#12D4A8"/>
    </linearGradient>
    <radialGradient id="bgGlow" cx="32%" cy="20%" r="78%">
      <stop offset="0" stop-color="#FFFFFF" stop-opacity="0.38"/>
      <stop offset="0.36" stop-color="#FFFFFF" stop-opacity="0.08"/>
      <stop offset="1" stop-color="#001225" stop-opacity="0"/>
    </radialGradient>
    <linearGradient id="screenShell" x1="246" y1="250" x2="778" y2="690" gradientUnits="userSpaceOnUse">
      <stop offset="0" stop-color="#FFFFFF"/>
      <stop offset="1" stop-color="#D9F7FF"/>
    </linearGradient>
    <linearGradient id="screenGlass" x1="292" y1="318" x2="728" y2="620" gradientUnits="userSpaceOnUse">
      <stop offset="0" stop-color="#D7FCFF"/>
      <stop offset="0.5" stop-color="#78B8FF"/>
      <stop offset="1" stop-color="#255EFF"/>
    </linearGradient>
    <linearGradient id="cursorFill" x1="612" y1="582" x2="792" y2="810" gradientUnits="userSpaceOnUse">
      <stop offset="0" stop-color="#FFFFFF"/>
      <stop offset="1" stop-color="#D9FFF4"/>
    </linearGradient>
    <filter id="deepShadow" x="-20%" y="-20%" width="140%" height="150%" color-interpolation-filters="sRGB">
      <feDropShadow dx="0" dy="26" stdDeviation="28" flood-color="#05264F" flood-opacity="0.28"/>
    </filter>
    <filter id="softLift" x="-20%" y="-20%" width="140%" height="140%" color-interpolation-filters="sRGB">
      <feDropShadow dx="0" dy="12" stdDeviation="16" flood-color="#063462" flood-opacity="0.22"/>
    </filter>
  </defs>

  <rect x="64" y="64" width="896" height="896" rx="224" fill="url(#appBg)"/>
  <rect x="64" y="64" width="896" height="896" rx="224" fill="url(#bgGlow)"/>
  <path d="M138 734C263 835 438 865 606 806C753 754 856 638 905 476C880 716 701 902 441 897C306 895 200 843 138 734Z" fill="#023456" opacity="0.16"/>
  <path d="M164 237C226 151 338 111 464 112" fill="none" stroke="#FFFFFF" stroke-width="22" stroke-linecap="round" opacity="0.36"/>

  <g filter="url(#deepShadow)">
    <rect x="208" y="264" width="608" height="398" rx="104" fill="url(#screenShell)"/>
    <rect x="262" y="318" width="500" height="290" rx="70" fill="#08244B"/>
    <rect x="292" y="348" width="440" height="230" rx="48" fill="url(#screenGlass)"/>
    <path d="M322 400C410 348 536 334 700 360V429C552 394 430 410 322 472V400Z" fill="#FFFFFF" opacity="0.30"/>
    <path d="M326 540C450 496 564 485 702 500V558H326V540Z" fill="#123E87" opacity="0.20"/>
  </g>

  <g filter="url(#softLift)">
    <path d="M326 718H698" stroke="#E6FFFF" stroke-width="42" stroke-linecap="round" opacity="0.94"/>
    <path d="M434 660L392 718" stroke="#E6FFFF" stroke-width="40" stroke-linecap="round" opacity="0.94"/>
    <path d="M590 660L632 718" stroke="#E6FFFF" stroke-width="40" stroke-linecap="round" opacity="0.94"/>
  </g>

  <path d="M534 438C583 392 658 392 706 438" fill="none" stroke="#D4FFF3" stroke-width="30" stroke-linecap="round"/>
  <path d="M578 484C604 462 637 462 663 484" fill="none" stroke="#FFFFFF" stroke-width="24" stroke-linecap="round"/>
  <circle cx="621" cy="528" r="24" fill="#FFFFFF"/>

  <g filter="url(#deepShadow)">
    <path d="M606 588L784 722L699 740L742 826L684 854L642 766L586 836L606 588Z" fill="url(#cursorFill)"/>
    <path d="M606 588L784 722L699 740L742 826L684 854L642 766L586 836L606 588Z" fill="none" stroke="#07385E" stroke-width="18" stroke-linejoin="round"/>
  </g>

  <rect x="64" y="64" width="896" height="896" rx="224" fill="none" stroke="#FFFFFF" stroke-width="3" opacity="0.22"/>
</svg>
